<svg width="2115" height="805" viewBox="0 0 2115 805" fill="none" xmlns="http://www.w3.org/2000/svg">
<g clip-path="url(#clip0_1624_262)">
<path d="M939.471 713V645.431H972.861C977.524 645.431 981.398 646.317 984.484 648.09C987.57 649.798 989.869 652.194 991.379 655.281C992.955 658.367 993.743 661.946 993.743 666.017C993.743 670.154 992.889 673.831 991.182 677.048C989.475 680.2 987.045 682.663 983.893 684.436C980.807 686.209 977.097 687.095 972.763 687.095H948.828V713H939.471ZM948.828 679.018H972.172C975.849 679.018 978.771 677.869 980.938 675.571C983.171 673.273 984.287 670.121 984.287 666.115C984.287 663.423 983.827 661.158 982.908 659.319C981.989 657.48 980.643 656.069 978.87 655.084C977.097 654.033 974.864 653.508 972.172 653.508H948.828V679.018ZM1004.98 713V645.431H1014.33V704.825H1047.92V713H1004.98ZM1081.7 714.182C1075.99 714.182 1071.06 713.263 1066.93 711.424C1062.79 709.585 1059.61 706.696 1057.37 702.756C1055.21 698.751 1054.12 693.629 1054.12 687.391V645.431H1063.48V688.376C1063.48 694.286 1065.06 698.718 1068.21 701.673C1071.43 704.628 1075.92 706.105 1081.7 706.105C1087.55 706.105 1092.11 704.628 1095.39 701.673C1098.68 698.718 1100.32 694.286 1100.32 688.376V645.431H1109.58V687.391C1109.58 693.629 1108.46 698.751 1106.23 702.756C1104 706.696 1100.78 709.585 1096.58 711.424C1092.44 713.263 1087.48 714.182 1081.7 714.182ZM1126.37 713V645.431H1140.84L1156.21 689.262C1156.6 690.444 1157 691.757 1157.39 693.202C1157.85 694.581 1158.25 695.894 1158.57 697.142C1158.97 698.39 1159.26 699.473 1159.46 700.392H1160.15C1160.35 699.407 1160.61 698.291 1160.94 697.043C1161.27 695.73 1161.63 694.384 1162.02 693.005C1162.42 691.626 1162.78 690.378 1163.11 689.262L1178.47 645.431H1192.85V713H1183.49V673.404C1183.49 671.368 1183.53 669.169 1183.59 666.805C1183.66 664.375 1183.72 662.175 1183.79 660.205C1183.86 658.17 1183.89 656.725 1183.89 655.872H1183.1C1182.9 656.725 1182.57 657.94 1182.12 659.516C1181.66 661.026 1181.16 662.635 1180.64 664.342C1180.18 665.984 1179.75 667.461 1179.36 668.775L1163.5 713H1155.42L1139.56 668.775C1139.17 667.658 1138.74 666.378 1138.28 664.933C1137.89 663.423 1137.46 661.88 1137 660.304C1136.61 658.728 1136.22 657.251 1135.82 655.872H1135.13C1135.2 657.316 1135.23 659.122 1135.23 661.289C1135.3 663.39 1135.33 665.524 1135.33 667.691C1135.39 669.793 1135.43 671.697 1135.43 673.404V713H1126.37ZM1209.76 713V645.431H1244.63C1248.5 645.431 1251.85 646.12 1254.68 647.499C1257.5 648.813 1259.67 650.684 1261.18 653.114C1262.75 655.543 1263.54 658.432 1263.54 661.781C1263.54 664.342 1263.08 666.706 1262.16 668.873C1261.24 671.04 1259.96 672.846 1258.32 674.291C1256.68 675.735 1254.81 676.819 1252.71 677.541V677.935C1255.07 678.46 1257.2 679.412 1259.11 680.791C1261.01 682.17 1262.52 684.009 1263.64 686.307C1264.82 688.54 1265.41 691.298 1265.41 694.581C1265.41 698.981 1264.49 702.526 1262.65 705.219C1260.82 707.911 1258.35 709.881 1255.27 711.129C1252.18 712.376 1248.63 713 1244.63 713H1209.76ZM1219.12 704.923H1244.53C1247.88 704.923 1250.6 704.07 1252.71 702.362C1254.81 700.589 1255.86 697.667 1255.86 693.596C1255.86 691.101 1255.4 689.032 1254.48 687.391C1253.56 685.683 1252.21 684.436 1250.44 683.648C1248.67 682.794 1246.44 682.367 1243.74 682.367H1219.12V704.923ZM1219.12 674.389H1242.86C1245.09 674.389 1247.03 673.962 1248.67 673.109C1250.31 672.189 1251.59 670.942 1252.51 669.366C1253.49 667.724 1253.99 665.885 1253.99 663.85C1253.99 660.304 1253.03 657.71 1251.13 656.069C1249.23 654.361 1246.7 653.508 1243.55 653.508H1219.12V674.389ZM1278.54 713V645.431H1287.89V713H1278.54ZM1304.8 713V645.431H1313.86L1346.66 689.952C1346.99 690.346 1347.41 690.937 1347.94 691.725C1348.46 692.513 1348.99 693.301 1349.51 694.089C1350.04 694.811 1350.47 695.467 1350.79 696.058H1351.19C1351.19 695.008 1351.19 693.99 1351.19 693.005C1351.19 691.954 1351.19 690.937 1351.19 689.952V645.431H1360.35V713H1351.78L1318.59 667.691C1318.13 666.969 1317.44 665.951 1316.52 664.638C1315.66 663.325 1314.94 662.274 1314.35 661.486H1313.86C1313.86 662.537 1313.86 663.587 1313.86 664.638C1313.86 665.623 1313.86 666.641 1313.86 667.691V713H1304.8ZM1407.76 714.182C1396.86 714.182 1388.55 711.326 1382.84 705.613C1377.19 699.9 1374.37 691.101 1374.37 679.215C1374.37 671.467 1375.68 664.999 1378.31 659.811C1380.93 654.624 1384.81 650.75 1389.93 648.189C1395.05 645.562 1401.29 644.249 1408.64 644.249C1413.24 644.249 1417.41 644.741 1421.15 645.726C1424.9 646.711 1428.11 648.222 1430.81 650.257C1433.56 652.227 1435.67 654.722 1437.11 657.743C1438.62 660.764 1439.38 664.342 1439.38 668.479H1429.82C1429.82 665.59 1429.3 663.128 1428.25 661.092C1427.19 658.991 1425.68 657.283 1423.71 655.97C1421.81 654.657 1419.58 653.737 1417.02 653.212C1414.46 652.621 1411.73 652.326 1408.84 652.326C1404.9 652.326 1401.39 652.818 1398.3 653.803C1395.22 654.788 1392.62 656.331 1390.52 658.432C1388.42 660.534 1386.81 663.226 1385.69 666.509C1384.58 669.793 1384.02 673.7 1384.02 678.23V680.299C1384.02 686.406 1384.94 691.363 1386.78 695.172C1388.68 698.981 1391.41 701.771 1394.95 703.544C1398.5 705.252 1402.77 706.105 1407.76 706.105C1412.81 706.105 1416.98 705.416 1420.27 704.037C1423.55 702.592 1425.98 700.425 1427.56 697.536C1429.2 694.647 1430.02 691.002 1430.02 686.603V685.421H1406.18V677.442H1439.47V713H1432.38L1431.4 704.431C1429.62 706.729 1427.52 708.6 1425.09 710.045C1422.66 711.49 1419.97 712.54 1417.02 713.197C1414.13 713.854 1411.04 714.182 1407.76 714.182ZM1501.12 714.182C1497.44 714.182 1493.9 713.821 1490.48 713.098C1487.13 712.376 1484.15 711.227 1481.52 709.651C1478.89 708.009 1476.79 705.908 1475.22 703.347C1473.71 700.786 1472.95 697.634 1472.95 693.892C1472.95 693.563 1472.95 693.235 1472.95 692.907C1473.02 692.578 1473.05 692.25 1473.05 691.922H1482.51C1482.51 692.119 1482.47 692.447 1482.41 692.907C1482.41 693.301 1482.41 693.662 1482.41 693.99C1482.41 696.617 1483.2 698.849 1484.77 700.688C1486.35 702.526 1488.51 703.905 1491.27 704.825C1494.1 705.678 1497.28 706.105 1500.83 706.105C1502.4 706.105 1504.04 706.007 1505.75 705.81C1507.52 705.613 1509.2 705.284 1510.77 704.825C1512.42 704.299 1513.86 703.643 1515.11 702.855C1516.42 702.001 1517.44 700.983 1518.16 699.801C1518.95 698.554 1519.34 697.043 1519.34 695.27C1519.34 693.038 1518.69 691.199 1517.37 689.755C1516.13 688.244 1514.45 687.03 1512.35 686.11C1510.25 685.125 1507.85 684.272 1505.16 683.549C1502.53 682.761 1499.81 682.006 1496.98 681.284C1494.16 680.562 1491.4 679.741 1488.71 678.821C1486.08 677.836 1483.72 676.654 1481.62 675.276C1479.52 673.831 1477.81 672.058 1476.5 669.957C1475.25 667.855 1474.63 665.294 1474.63 662.274C1474.63 659.45 1475.18 656.922 1476.3 654.69C1477.48 652.457 1479.19 650.586 1481.42 649.075C1483.72 647.499 1486.54 646.317 1489.89 645.529C1493.24 644.676 1497.08 644.249 1501.42 644.249C1504.96 644.249 1508.25 644.643 1511.27 645.431C1514.35 646.153 1517.05 647.302 1519.34 648.878C1521.71 650.389 1523.55 652.326 1524.86 654.69C1526.17 657.054 1526.83 659.91 1526.83 663.259V664.441H1517.57V662.963C1517.57 660.731 1516.88 658.826 1515.5 657.251C1514.12 655.675 1512.22 654.46 1509.79 653.606C1507.43 652.752 1504.73 652.326 1501.71 652.326C1497.77 652.326 1494.49 652.72 1491.86 653.508C1489.24 654.23 1487.27 655.313 1485.95 656.758C1484.71 658.137 1484.08 659.713 1484.08 661.486C1484.08 663.522 1484.71 665.229 1485.95 666.608C1487.27 667.987 1488.97 669.136 1491.07 670.055C1493.18 670.909 1495.57 671.697 1498.27 672.419C1500.96 673.141 1503.68 673.897 1506.44 674.685C1509.26 675.407 1511.99 676.261 1514.62 677.245C1517.31 678.165 1519.7 679.347 1521.81 680.791C1523.97 682.17 1525.68 683.943 1526.93 686.11C1528.18 688.212 1528.8 690.805 1528.8 693.892C1528.8 698.685 1527.62 702.592 1525.25 705.613C1522.89 708.568 1519.64 710.735 1515.5 712.114C1511.37 713.492 1506.57 714.182 1501.12 714.182ZM1542.57 713V645.431H1594.58V653.508H1551.93V674.389H1590.25V682.466H1551.93V704.923H1595.17V713H1542.57ZM1609.23 713V645.431H1644.79C1649.39 645.431 1653.2 646.284 1656.22 647.992C1659.3 649.633 1661.6 651.965 1663.11 654.985C1664.62 657.94 1665.38 661.355 1665.38 665.229C1665.38 669.891 1664.33 673.897 1662.22 677.245C1660.12 680.594 1657.23 682.991 1653.56 684.436L1667.74 713H1657.5L1644.3 686.11H1618.59V713H1609.23ZM1618.59 678.132H1643.9C1647.65 678.132 1650.57 676.983 1652.67 674.685C1654.84 672.386 1655.92 669.234 1655.92 665.229C1655.92 662.734 1655.46 660.632 1654.54 658.925C1653.62 657.218 1652.28 655.904 1650.5 654.985C1648.73 654 1646.53 653.508 1643.9 653.508H1618.59V678.132ZM1697.57 713L1672.35 645.431H1682.5L1699.83 693.301C1700.22 694.22 1700.62 695.27 1701.01 696.452C1701.41 697.634 1701.8 698.784 1702.19 699.9C1702.59 701.016 1702.95 702.001 1703.28 702.855H1703.87C1704.13 702.067 1704.46 701.115 1704.85 699.998C1705.25 698.882 1705.64 697.766 1706.04 696.649C1706.43 695.467 1706.82 694.351 1707.22 693.301L1724.36 645.431H1734.21L1708.89 713H1697.57ZM1743.71 713V645.431H1753.06V713H1743.71ZM1798.82 714.182C1791.93 714.182 1786.09 712.934 1781.29 710.439C1776.5 707.878 1772.82 704.037 1770.26 698.915C1767.76 693.727 1766.52 687.161 1766.52 679.215C1766.52 667.461 1769.37 658.695 1775.09 652.917C1780.8 647.138 1788.74 644.249 1798.92 644.249C1804.7 644.249 1809.82 645.201 1814.29 647.105C1818.75 648.944 1822.23 651.768 1824.73 655.576C1827.29 659.319 1828.57 664.047 1828.57 669.76H1819.11C1819.11 665.82 1818.26 662.569 1816.55 660.008C1814.91 657.448 1812.58 655.543 1809.56 654.296C1806.54 652.982 1802.99 652.326 1798.92 652.326C1794.19 652.326 1790.12 653.245 1786.71 655.084C1783.29 656.922 1780.7 659.779 1778.93 663.653C1777.15 667.461 1776.27 672.386 1776.27 678.427V680.496C1776.27 686.471 1777.15 691.363 1778.93 695.172C1780.7 698.915 1783.26 701.673 1786.61 703.446C1790.03 705.219 1794.13 706.105 1798.92 706.105C1803.13 706.105 1806.74 705.481 1809.76 704.234C1812.84 702.986 1815.21 701.082 1816.85 698.521C1818.56 695.894 1819.41 692.611 1819.41 688.671H1828.57C1828.57 694.515 1827.26 699.309 1824.63 703.052C1822.07 706.795 1818.56 709.585 1814.09 711.424C1809.63 713.263 1804.54 714.182 1798.82 714.182ZM1841.63 713V645.431H1893.63V653.508H1850.98V674.389H1889.3V682.466H1850.98V704.923H1894.22V713H1841.63ZM1933.11 714.182C1929.43 714.182 1925.88 713.821 1922.47 713.098C1919.12 712.376 1916.13 711.227 1913.5 709.651C1910.88 708.009 1908.78 705.908 1907.2 703.347C1905.69 700.786 1904.94 697.634 1904.94 693.892C1904.94 693.563 1904.94 693.235 1904.94 692.907C1905 692.578 1905.03 692.25 1905.03 691.922H1914.49C1914.49 692.119 1914.46 692.447 1914.39 692.907C1914.39 693.301 1914.39 693.662 1914.39 693.99C1914.39 696.617 1915.18 698.849 1916.75 700.688C1918.33 702.526 1920.5 703.905 1923.26 704.825C1926.08 705.678 1929.26 706.105 1932.81 706.105C1934.39 706.105 1936.03 706.007 1937.73 705.81C1939.51 705.613 1941.18 705.284 1942.76 704.825C1944.4 704.299 1945.84 703.643 1947.09 702.855C1948.41 702.001 1949.42 700.983 1950.15 699.801C1950.93 698.554 1951.33 697.043 1951.33 695.27C1951.33 693.038 1950.67 691.199 1949.36 689.755C1948.11 688.244 1946.44 687.03 1944.33 686.11C1942.23 685.125 1939.84 684.272 1937.14 683.549C1934.52 682.761 1931.79 682.006 1928.97 681.284C1926.14 680.562 1923.39 679.741 1920.69 678.821C1918.07 677.836 1915.7 676.654 1913.6 675.276C1911.5 673.831 1909.79 672.058 1908.48 669.957C1907.23 667.855 1906.61 665.294 1906.61 662.274C1906.61 659.45 1907.17 656.922 1908.28 654.69C1909.47 652.457 1911.17 650.586 1913.41 649.075C1915.7 647.499 1918.53 646.317 1921.88 645.529C1925.23 644.676 1929.07 644.249 1933.4 644.249C1936.95 644.249 1940.23 644.643 1943.25 645.431C1946.34 646.153 1949.03 647.302 1951.33 648.878C1953.69 650.389 1955.53 652.326 1956.84 654.69C1958.16 657.054 1958.81 659.91 1958.81 663.259V664.441H1949.55V662.963C1949.55 660.731 1948.86 658.826 1947.49 657.251C1946.11 655.675 1944.2 654.46 1941.77 653.606C1939.41 652.752 1936.72 652.326 1933.7 652.326C1929.76 652.326 1926.47 652.72 1923.85 653.508C1921.22 654.23 1919.25 655.313 1917.94 656.758C1916.69 658.137 1916.07 659.713 1916.07 661.486C1916.07 663.522 1916.69 665.229 1917.94 666.608C1919.25 667.987 1920.96 669.136 1923.06 670.055C1925.16 670.909 1927.56 671.697 1930.25 672.419C1932.94 673.141 1935.67 673.897 1938.42 674.685C1941.25 675.407 1943.97 676.261 1946.6 677.245C1949.29 678.165 1951.69 679.347 1953.79 680.791C1955.96 682.17 1957.66 683.943 1958.91 686.11C1960.16 688.212 1960.78 690.805 1960.78 693.892C1960.78 698.685 1959.6 702.592 1957.24 705.613C1954.87 708.568 1951.62 710.735 1947.49 712.114C1943.35 713.492 1938.56 714.182 1933.11 714.182Z" fill="#0061FF"/>
<path d="M1072 348.4V502H1005.7V348.4H937.9V295.6H1139.5V348.4H1072ZM1375.2 418.9C1375.2 447.1 1366.3 468.6 1348.5 483.4C1330.7 498.2 1305.4 505.6 1272.6 505.6C1239.8 505.6 1214.4 498.2 1196.4 483.4C1178.6 468.6 1169.7 447.1 1169.7 418.9V295.6H1236V418C1236 429.6 1239.1 438.9 1245.3 445.9C1251.5 452.7 1260.5 456.1 1272.3 456.1C1284.1 456.1 1293.1 452.6 1299.3 445.6C1305.7 438.6 1308.9 429.4 1308.9 418V295.6H1375.2V418.9ZM1615.51 358.9C1615.51 371.5 1612.11 382.9 1605.31 393.1C1598.51 403.3 1588.61 410.8 1575.61 415.6L1621.51 502H1547.11L1510.51 426.7H1485.91V502H1419.61V295.6H1545.91C1560.71 295.6 1573.31 298.5 1583.71 304.3C1594.31 309.9 1602.21 317.6 1607.41 327.4C1612.81 337 1615.51 347.5 1615.51 358.9ZM1548.01 361.6C1548.01 356.2 1546.21 351.7 1542.61 348.1C1539.01 344.5 1534.61 342.7 1529.41 342.7H1485.91V380.8H1529.41C1534.61 380.8 1539.01 379 1542.61 375.4C1546.21 371.6 1548.01 367 1548.01 361.6ZM1790.5 295.6C1800.9 295.6 1810.4 297.8 1819 302.2C1827.8 306.4 1834.7 312.4 1839.7 320.2C1844.9 328 1847.5 336.7 1847.5 346.3C1847.5 371.7 1836 387.7 1813 394.3V395.5C1839.2 401.5 1852.3 418.7 1852.3 447.1C1852.3 457.9 1849.6 467.5 1844.2 475.9C1839 484.1 1831.8 490.5 1822.6 495.1C1813.4 499.7 1803.3 502 1792.3 502H1653.1V295.6H1790.5ZM1719.4 376H1765C1769.4 376 1773 374.5 1775.8 371.5C1778.8 368.3 1780.3 364.4 1780.3 359.8V356.8C1780.3 352.4 1778.8 348.7 1775.8 345.7C1772.8 342.5 1769.2 340.9 1765 340.9H1719.4V376ZM1719.4 454H1769.8C1774.2 454 1777.8 452.5 1780.6 449.5C1783.6 446.3 1785.1 442.4 1785.1 437.8V434.8C1785.1 430.2 1783.6 426.4 1780.6 423.4C1777.8 420.2 1774.2 418.6 1769.8 418.6H1719.4V454ZM1989.2 292C2024.8 292 2052.3 301.1 2071.7 319.3C2091.1 337.5 2100.8 364 2100.8 398.8C2100.8 433.6 2091.1 460.1 2071.7 478.3C2052.3 496.5 2024.8 505.6 1989.2 505.6C1953.6 505.6 1926.1 496.6 1906.7 478.6C1887.5 460.4 1877.9 433.8 1877.9 398.8C1877.9 363.8 1887.5 337.3 1906.7 319.3C1926.1 301.1 1953.6 292 1989.2 292ZM1989.2 341.5C1975 341.5 1964.2 345.8 1956.8 354.4C1949.4 363 1945.7 374.6 1945.7 389.2V408.4C1945.7 423 1949.4 434.6 1956.8 443.2C1964.2 451.8 1975 456.1 1989.2 456.1C2003.4 456.1 2014.2 451.8 2021.6 443.2C2029.2 434.6 2033 423 2033 408.4V389.2C2033 374.6 2029.2 363 2021.6 354.4C2014.2 345.8 2003.4 341.5 1989.2 341.5Z" fill="#0061FF"/>
<path d="M412.919 0L0 362.226H94.83V804.186H223.099C225.552 770.989 216.427 498.571 230.087 473.951C246.184 420.817 292.997 378.93 347.563 368.747V328.74H391.614V265.769L312.042 279.811V227.561L395.459 242.244C402.93 230.649 421.468 230.65 428.938 242.244L512.475 227.561V279.811L432.943 265.769V328.74H476.994V366.107C558.023 368.434 626.715 442.158 623.404 523.136H650.195V570.184H508.791V523.136H535.582C537.305 493.579 517.35 464.762 488.795 456.568C477.207 451.151 390.661 454.651 376.718 453.722C348.38 453.368 321.538 473.235 313.649 500.464C311.767 506.649 310.804 513.11 310.802 519.575V804.187C378.687 804.187 656.557 804.187 729.607 804.187V362.227H824.397L412.919 0ZM622.396 706.672C616.896 751.756 552.44 757.942 538.428 714.771C526.284 688.48 579.026 607.886 579.513 604.228C579.852 605.992 625.874 681.402 622.396 706.672Z" fill="#0061FF"/>
</g>
<defs>
<clipPath id="clip0_1624_262">
<rect width="2115" height="804.19" fill="white"/>
</clipPath>
</defs>
</svg>
